<svg xmlns="http://www.w3.org/2000/svg" xmlns:xlink="http://www.w3.org/1999/xlink" version="1.1" x="0px" y="0px" viewBox="0 0 64 80" style="enable-background:new 0 0 64 64;" xml:space="preserve"><g><path d="M61.4,22.1L42,12.4c0-0.1,0-0.2,0-0.4c0-5.5-4.5-10-10-10S22,6.5,22,12c0,0.1,0,0.2,0,0.3L2.6,21.1C2.2,21.2,2,21.6,2,22v5   c0,0.6,0.4,1,1,1h5v15h2V28h9v18H6c-0.6,0-1,0.4-1,1v3H4c-0.6,0-1,0.4-1,1v4c0,0.6,0.4,1,1,1h56c0.6,0,1-0.4,1-1v-4   c0-0.6-0.4-1-1-1h-1v-3c0-0.6-0.4-1-1-1h-2V28h5c0.6,0,1-0.4,1-1v-4C62,22.6,61.8,22.3,61.4,22.1z M32,4c4.4,0,8,3.6,8,8   s-3.6,8-8,8s-8-3.6-8-8S27.6,4,32,4z M21,28h10v18H21V28z M59,54H5v-2h54V54z M57,50H7v-2h50V50z M54,46H33V28h10v15h2V28h9V46z    M60,26H4v-3.4l18.3-8.2c1.1,4.4,5,7.6,9.7,7.6c4.7,0,8.6-3.2,9.7-7.5L60,23.6V26z"/><path d="M32,15c-0.6,0-1-0.4-1-1h-2c0,1.3,0.8,2.4,2,2.8V18h2v-1.2c1.2-0.4,2-1.5,2-2.8c0-1.7-1.3-3-3-3c-0.6,0-1-0.4-1-1   s0.4-1,1-1s1,0.4,1,1h2c0-1.3-0.8-2.4-2-2.8V6h-2v1.2c-1.2,0.4-2,1.5-2,2.8c0,1.7,1.3,3,3,3c0.6,0,1,0.4,1,1S32.6,15,32,15z"/></g></svg>